<svg width="512" height="512" viewBox="0 0 512 512" xmlns="http://www.w3.org/2000/svg">
  <defs>
    <linearGradient id="shield" x1="0" y1="0" x2="0" y2="1">
      <stop offset="0" stop-color="#e53935"/>
      <stop offset="1" stop-color="#b71c1c"/>
    </linearGradient>
    <linearGradient id="flame" x1="0" y1="0" x2="0" y2="1">
      <stop offset="0" stop-color="#ffeb3b"/>
      <stop offset="0.45" stop-color="#ff9800"/>
      <stop offset="1" stop-color="#ff5722"/>
    </linearGradient>
    <linearGradient id="flameInner" x1="0" y1="0" x2="0" y2="1">
      <stop offset="0" stop-color="#fffde7"/>
      <stop offset="1" stop-color="#ffc107"/>
    </linearGradient>
  </defs>

  <!-- Shield / badge -->
  <path d="M96 96 Q96 80 112 80 L400 80 Q416 80 416 96 L416 250 Q416 360 256 456 Q96 360 96 250 Z"
        fill="url(#shield)" stroke="#ffc107" stroke-width="18" stroke-linejoin="round"/>

  <!-- Outer flame -->
  <path d="M256 150 C300 210 332 250 322 302 C316 348 286 374 256 374 C226 374 196 348 190 302 C186 262 212 240 226 252 C218 220 232 184 256 150 Z"
        fill="url(#flame)"/>

  <!-- Inner flame -->
  <path d="M256 232 C282 262 292 286 286 310 C282 338 271 354 256 356 C241 354 230 338 228 310 C226 290 240 278 248 286 C246 266 250 250 256 232 Z"
        fill="url(#flameInner)"/>
</svg>
